<?xml version="1.0" standalone="no"?>
<!DOCTYPE svg PUBLIC "-//W3C//DTD SVG 20010904//EN"
 "http://www.w3.org/TR/2001/REC-SVG-20010904/DTD/svg10.dtd">
<svg version="1.0" xmlns="http://www.w3.org/2000/svg"
 width="1024.000000pt" height="1024.000000pt" viewBox="0 0 1024.000000 1024.000000"
 preserveAspectRatio="xMidYMid meet">
<metadata>
Created by potrace 1.11, written by Peter Selinger 2001-2013
</metadata>
<g transform="translate(0.000000,1024.000000) scale(0.100000,-0.100000)"
fill="#000000" stroke="none">
<path d="M4790 10230 c-628 -46 -1190 -184 -1745 -429 -769 -341 -1448 -874
-1980 -1556 -111 -141 -292 -413 -389 -583 -656 -1146 -841 -2495 -521 -3788
383 -1545 1490 -2839 2970 -3469 426 -182 936 -316 1400 -369 1305 -150 2598
196 3648 977 281 208 589 495 819 760 1094 1267 1497 2962 1092 4597 -190 764
-564 1484 -1087 2093 -113 132 -382 401 -522 523 -535 464 -1161 814 -1824
1020 -342 106 -674 173 -1033 209 -186 19 -656 27 -828 15z m3103 -2135 c161
-28 227 -65 260 -147 41 -98 52 -187 52 -413 0 -121 -6 -267 -13 -325 -122
-994 -568 -1938 -1221 -2588 -541 -538 -1278 -855 -2173 -933 l-138 -12 -90
-72 c-50 -40 -147 -112 -216 -161 l-125 -89 56 -5 57 -5 -88 -87 c-100 -97
-210 -193 -347 -301 -467 -372 -1169 -773 -1596 -913 -101 -33 -197 -38 -214
-12 -36 55 122 458 329 842 373 691 805 1252 1219 1583 57 46 111 94 120 106
9 13 15 43 15 77 0 30 7 114 15 185 74 632 274 1197 582 1642 223 323 565 651
938 900 553 369 1275 641 1902 717 70 9 142 17 158 19 91 11 439 6 518 -8z"/>
<path d="M7143 7422 c-324 -116 -260 -598 83 -620 135 -9 243 52 304 172 31
61 35 77 35 145 -1 129 -63 229 -178 288 -69 35 -170 41 -244 15z"/>
<path d="M6195 6849 c-232 -55 -427 -247 -480 -470 -34 -145 -11 -333 57 -462
71 -134 237 -266 393 -313 82 -25 258 -25 340 0 250 75 433 287 465 537 31
250 -84 493 -294 624 -112 69 -180 88 -321 91 -66 2 -138 -1 -160 -7z"/>
<path d="M5102 5446 c-104 -20 -206 -52 -289 -92 -60 -29 -82 -46 -126 -102
-30 -37 -390 -499 -802 -1027 -411 -528 -778 -991 -815 -1030 -37 -38 -75 -81
-84 -95 -19 -28 -21 -82 -5 -113 17 -32 70 -87 101 -103 63 -33 110 -13 223
96 63 61 452 374 501 403 6 3 69 0 140 -8 71 -8 153 -15 182 -15 l53 0 196
153 196 152 -192 3 c-105 1 -191 6 -191 10 0 4 272 219 604 477 491 382 610
480 638 521 108 161 163 561 96 692 -37 71 -76 87 -228 89 -73 1 -155 -4 -198
-11z"/>
<path d="M3785 3083 c-224 -131 -504 -266 -710 -344 -55 -21 -101 -42 -103
-48 -6 -19 39 -82 81 -112 76 -55 127 -38 252 80 44 42 200 170 348 285 228
177 280 220 265 215 -2 0 -61 -34 -133 -76z"/>
</g>
</svg>
